<?xml version="1.0" encoding="utf-8"?>
<!-- Generator: Adobe Illustrator 24.0.2, SVG Export Plug-In . SVG Version: 6.00 Build 0)  -->
<svg version="1.1" id="Capa_1" xmlns="http://www.w3.org/2000/svg" xmlns:xlink="http://www.w3.org/1999/xlink" x="0px" y="0px"
	 viewBox="0 0 500 500" style="enable-background:new 0 0 500 500;" xml:space="preserve">
<style type="text/css">
	.st0{opacity:0.5;}
	.st1{fill:#FFD429;}
	.st2{display:none;fill:url(#SVGID_1_);}
	.st3{fill:#F72626;}
</style>
<g>
	<g class="st0">
		
			<ellipse transform="matrix(5.560745e-02 -0.9985 0.9985 5.560745e-02 18.041 518.8373)" class="st1" cx="283.3" cy="249.9" rx="144.4" ry="144.4"/>
		<g>
			<path class="st1" d="M283.3,107.2c78.7,0,142.7,64,142.7,142.7c0,78.7-64,142.7-142.7,142.7s-142.7-64-142.7-142.7
				C140.6,171.2,204.6,107.2,283.3,107.2 M283.3,105.5c-79.7,0-144.4,64.6-144.4,144.4c0,79.7,64.6,144.4,144.4,144.4
				c79.7,0,144.4-64.6,144.4-144.4C427.7,170.1,363,105.5,283.3,105.5L283.3,105.5z"/>
		</g>
	</g>
	<g class="st0">
		<path class="st1" d="M379.1,243.1c0,84-68.1,152.2-152.2,152.2c-84,0-152.2-68.1-152.2-152.2c0-84,68.1-152.2,152.2-152.2
			C311,90.9,379.1,159.1,379.1,243.1z"/>
		<g>
			<path class="st1" d="M227,92.6c83,0,150.5,67.5,150.5,150.5c0,83-67.5,150.5-150.5,150.5c-83,0-150.5-67.5-150.5-150.5
				C76.5,160.1,144,92.6,227,92.6 M227,90.9c-84,0-152.2,68.1-152.2,152.2c0,84,68.1,152.2,152.2,152.2c84,0,152.2-68.1,152.2-152.2
				C379.1,159.1,311,90.9,227,90.9L227,90.9z"/>
		</g>
	</g>
	<g class="st0">
		<path class="st1" d="M350.5,100.8c0,19.3-15.6,34.9-34.9,34.9c-19.3,0-34.9-15.6-34.9-34.9c0-19.3,15.6-34.9,34.9-34.9
			C334.8,65.9,350.5,81.5,350.5,100.8z"/>
		<g>
			<path class="st1" d="M315.6,67.6c18.3,0,33.2,14.9,33.2,33.2c0,18.3-14.9,33.2-33.2,33.2c-18.3,0-33.2-14.9-33.2-33.2
				C282.3,82.5,297.2,67.6,315.6,67.6 M315.6,65.9c-19.3,0-34.9,15.6-34.9,34.9c0,19.3,15.6,34.9,34.9,34.9
				c19.3,0,34.9-15.6,34.9-34.9C350.5,81.5,334.8,65.9,315.6,65.9L315.6,65.9z"/>
		</g>
	</g>
	<g class="st0">
		<path class="st1" d="M150.1,383.9c0,19.3-15.6,34.9-34.9,34.9c-19.3,0-34.9-15.6-34.9-34.9c0-19.3,15.6-34.9,34.9-34.9
			C134.5,348.9,150.1,364.6,150.1,383.9z"/>
		<g>
			<path class="st1" d="M115.2,350.6c18.3,0,33.2,14.9,33.2,33.2c0,18.3-14.9,33.2-33.2,33.2c-18.3,0-33.2-14.9-33.2-33.2
				C82,365.5,96.9,350.6,115.2,350.6 M115.2,348.9c-19.3,0-34.9,15.6-34.9,34.9c0,19.3,15.6,34.9,34.9,34.9
				c19.3,0,34.9-15.6,34.9-34.9C150.1,364.6,134.5,348.9,115.2,348.9L115.2,348.9z"/>
		</g>
	</g>
	<g class="st0">
		<path class="st1" d="M377.9,129c0,7.9-6.4,14.3-14.3,14.3c-7.9,0-14.3-6.4-14.3-14.3c0-7.9,6.4-14.3,14.3-14.3
			C371.5,114.7,377.9,121.1,377.9,129z"/>
		<g>
			<path class="st1" d="M363.6,116.4c7,0,12.6,5.7,12.6,12.6s-5.7,12.6-12.6,12.6c-7,0-12.6-5.7-12.6-12.6S356.6,116.4,363.6,116.4
				 M363.6,114.7c-7.9,0-14.3,6.4-14.3,14.3s6.4,14.3,14.3,14.3c7.9,0,14.3-6.4,14.3-14.3S371.5,114.7,363.6,114.7L363.6,114.7z"/>
		</g>
	</g>
	<g class="st0">
		<path class="st1" d="M183.5,415.6c0,7.9-6.4,14.3-14.3,14.3c-7.9,0-14.3-6.4-14.3-14.3c0-7.9,6.4-14.3,14.3-14.3
			C177.1,401.3,183.5,407.7,183.5,415.6z"/>
		<g>
			<path class="st1" d="M169.2,403c7,0,12.6,5.7,12.6,12.6s-5.7,12.6-12.6,12.6c-7,0-12.6-5.7-12.6-12.6S162.2,403,169.2,403
				 M169.2,401.3c-7.9,0-14.3,6.4-14.3,14.3c0,7.9,6.4,14.3,14.3,14.3c7.9,0,14.3-6.4,14.3-14.3
				C183.5,407.7,177.1,401.3,169.2,401.3L169.2,401.3z"/>
		</g>
	</g>
	<g class="st0">
		<path class="st1" d="M92.6,339.2c0,5.1-4.1,9.2-9.2,9.2c-5.1,0-9.2-4.1-9.2-9.2c0-5.1,4.1-9.2,9.2-9.2
			C88.5,330,92.6,334.1,92.6,339.2z"/>
		<g>
			<path class="st1" d="M83.4,331.7c4.1,0,7.5,3.3,7.5,7.5c0,4.1-3.3,7.5-7.5,7.5c-4.1,0-7.5-3.3-7.5-7.5
				C75.9,335,79.3,331.7,83.4,331.7 M83.4,330c-5.1,0-9.2,4.1-9.2,9.2c0,5.1,4.1,9.2,9.2,9.2c5.1,0,9.2-4.1,9.2-9.2
				C92.6,334.1,88.5,330,83.4,330L83.4,330z"/>
		</g>
	</g>
	<g class="st0">
		<path class="st1" d="M366.5,298c0,75.2-60.9,136.1-136.1,136.1c-75.2,0-136.1-60.9-136.1-136.1c0-75.2,60.9-136.1,136.1-136.1
			C305.5,161.8,366.5,222.8,366.5,298z"/>
		<g>
			<path class="st1" d="M230.4,163.5c74.1,0,134.4,60.3,134.4,134.4s-60.3,134.4-134.4,134.4c-74.1,0-134.4-60.3-134.4-134.4
				S156.2,163.5,230.4,163.5 M230.4,161.8c-75.2,0-136.1,60.9-136.1,136.1c0,75.2,60.9,136.1,136.1,136.1
				c75.2,0,136.1-60.9,136.1-136.1C366.5,222.8,305.5,161.8,230.4,161.8L230.4,161.8z"/>
		</g>
	</g>
	<g class="st0">
		<path class="st1" d="M399.5,317.4c0,56.4-45.7,102.1-102.1,102.1c-56.4,0-102.1-45.7-102.1-102.1c0-56.4,45.7-102.1,102.1-102.1
			C353.8,215.2,399.5,261,399.5,317.4z"/>
		<g>
			<path class="st1" d="M297.4,216.9c55.4,0,100.4,45.1,100.4,100.4c0,55.4-45.1,100.4-100.4,100.4c-55.4,0-100.4-45.1-100.4-100.4
				C196.9,262,242,216.9,297.4,216.9 M297.4,215.2c-56.4,0-102.1,45.7-102.1,102.1c0,56.4,45.7,102.1,102.1,102.1
				c56.4,0,102.1-45.7,102.1-102.1C399.5,261,353.8,215.2,297.4,215.2L297.4,215.2z"/>
		</g>
	</g>
	<g class="st0">
		<ellipse class="st1" cx="227.9" cy="262.8" rx="117.2" ry="123.7"/>
		<g>
			<path class="st1" d="M227.9,140.9c63.7,0,115.5,54.7,115.5,122s-51.8,122-115.5,122c-63.7,0-115.5-54.7-115.5-122
				S164.3,140.9,227.9,140.9 M227.9,139.2c-64.7,0-117.2,55.4-117.2,123.7c0,68.3,52.5,123.7,117.2,123.7
				c64.7,0,117.2-55.4,117.2-123.7C345.1,194.5,292.7,139.2,227.9,139.2L227.9,139.2z"/>
		</g>
	</g>
</g>
<radialGradient id="SVGID_1_" cx="250" cy="247.5433" r="161.75" gradientTransform="matrix(1 0 0 -1 0 497.5433)" gradientUnits="userSpaceOnUse">
	<stop  offset="0" style="stop-color:#FFFF00;stop-opacity:0.54"/>
	<stop  offset="1" style="stop-color:#FF0000;stop-opacity:0"/>
</radialGradient>
<circle class="st2" cx="250" cy="250" r="161.8"/>
<g>
	<path class="st3" d="M93.9,192.5v-4.1c0-4.6,1.3-7.8,3.8-9.8c2.3-1.7,5.4-2.6,9.3-2.6h3.3c1.7,0,4.2,0.2,7.5,0.5
		c3.3,0.3,6,0.8,7.9,1.4v7.2c-5-0.4-9-0.7-12.1-0.7h-4.8c-2,0-3.4,0.3-4.4,0.8c-0.9,0.5-1.4,1.8-1.4,3.9v2.4c0,1.8,0.4,3.1,1.1,3.7
		c0.8,0.6,2.1,0.9,4,0.9h7.7c5,0,8.4,2,10.1,6c0.9,2,1.3,4.3,1.3,6.7v3.2c0,5.8-2,9.7-5.9,11.5c-2,1-4.5,1.4-7.5,1.4
		c-8,0-14.2-0.7-18.7-2v-7.2c4.9,0.5,9.1,0.7,12.7,0.7c3.6,0,5.7,0,6.3-0.1c0.6-0.1,1.2-0.3,1.9-0.5c1.3-0.6,2-1.7,2-3.5v-2.6
		c0-2.3-0.7-3.7-2.2-4.2c-0.6-0.2-1.3-0.3-2.2-0.3h-7.4C98.1,205.2,93.9,201,93.9,192.5z"/>
	<path class="st3" d="M133.7,215v-38.6h9.3v36.1c0,1.7,0.5,2.7,1.4,3c0.7,0.3,1.6,0.4,2.7,0.4h16.6v8.4h-19.9
		C137,224.3,133.7,221.2,133.7,215z"/>
	<rect x="169.4" y="176.4" class="st3" width="9.3" height="47.9"/>
	<polygon class="st3" points="184.3,224.3 188.6,176.4 201.5,176.4 209.6,209.1 217.6,176.4 230.4,176.4 234.9,224.3 225.8,224.3 
		222.6,192.3 214.8,224.3 204.5,224.3 196.3,192.3 193.5,224.3 	"/>
	<path class="st3" d="M251,195.4h10.1c1.7,0,2.9-0.5,3.8-1.4c0.9-1,1.3-2.4,1.3-4.3c0-1.9-0.5-3.2-1.5-4c-1-0.8-2.2-1.2-3.6-1.2H251
		V195.4z M266.8,209.9c0-2-0.4-3.6-1.3-4.8c-0.9-1.3-2.2-1.9-4-1.9H251v13.1l10.5,0.1C265.1,216.3,266.8,214.1,266.8,209.9z
		 M241.7,224.3v-47.9h20c4.7,0,8.1,1.2,10.3,3.6c2.2,2.4,3.3,5.4,3.3,9.2c0,2.4-0.6,4.7-1.7,6.7c-1.1,2-2.8,3.1-5,3.5
		c2.1,0.4,3.9,1.6,5.3,3.5c1.4,1.9,2.1,4.3,2.1,7.3c0,4.6-1.1,8.1-3.4,10.5c-2.3,2.4-5.9,3.6-10.9,3.6H241.7z"/>
	<path class="st3" d="M291,190.9c-0.2,1.1-0.4,2.5-0.5,4.1c-0.1,1.6-0.2,3.6-0.2,6.1c0,2.4,0.1,4.5,0.3,6.3c0.2,1.7,0.5,3.2,0.9,4.4
		c0.4,1.2,1.1,2.1,1.9,2.8c1.5,1.1,3.9,1.6,7.1,1.6c3.1,0,5.4-0.6,6.9-1.7c2.2-1.6,3.2-6.2,3.2-13.8c0-5.1-0.3-8.5-0.9-10.1
		c-0.5-1.7-1-2.8-1.5-3.5c-0.4-0.7-1.1-1.2-1.9-1.6c-1.4-0.6-3-0.9-4.8-0.9c-1.9,0-3.2,0-3.9,0.1c-0.7,0-1.5,0.2-2.3,0.4
		c-0.8,0.2-1.4,0.6-1.9,1c-0.4,0.4-0.9,1-1.4,1.8C291.5,188.7,291.2,189.7,291,190.9z M281.9,212.5c-0.3-1.5-0.6-3.3-0.7-5.2
		c-0.2-2-0.3-4.3-0.3-7.1c0-2.8,0.2-5.4,0.5-7.9c0.4-2.5,0.8-4.6,1.4-6.3c0.6-1.7,1.3-3.2,2.3-4.5c1-1.2,1.9-2.2,2.9-2.9
		c1-0.7,2.3-1.2,3.7-1.6c2.3-0.7,4.7-1,7.2-1c2.6,0,4.4,0,5.6,0.1c1.2,0.1,2.4,0.3,3.7,0.6c1.3,0.3,2.5,0.7,3.4,1.2
		c0.9,0.5,1.9,1.2,2.8,2c1,0.8,1.8,1.8,2.4,3.1c0.6,1.2,1.2,2.6,1.7,4.3c1,3.2,1.5,7,1.5,11.3c0,4.3-0.2,7.7-0.5,10
		c-0.3,2.3-0.7,4.3-1.3,6c-0.5,1.7-1.3,3.1-2.2,4.3c-0.9,1.2-1.8,2.1-2.8,2.9c-1,0.7-2.2,1.2-3.6,1.6c-3.3,1-7.6,1.3-12.9,0.9
		c-2.7-0.1-4.7-0.5-6-1c-1.2-0.5-2.3-1.1-3.2-1.6c-0.9-0.6-1.6-1.3-2.3-2.2c-0.6-0.9-1.2-1.9-1.8-3.1
		C282.8,215.4,282.3,214,281.9,212.5z"/>
	<path class="st3" d="M335,190.9c-0.2,1.1-0.4,2.5-0.5,4.1c-0.1,1.6-0.2,3.6-0.2,6.1c0,2.4,0.1,4.5,0.3,6.3c0.2,1.7,0.5,3.2,0.9,4.4
		c0.4,1.2,1.1,2.1,1.9,2.8c1.5,1.1,3.9,1.6,7.2,1.6c3.1,0,5.4-0.6,7-1.7c2.2-1.6,3.2-6.2,3.2-13.8c0-5.1-0.3-8.5-0.9-10.1
		c-0.5-1.7-1-2.8-1.5-3.5c-0.4-0.7-1.1-1.2-1.9-1.6c-1.4-0.6-3-0.9-4.8-0.9c-1.9,0-3.2,0-3.9,0.1c-0.7,0-1.5,0.2-2.3,0.4
		c-0.8,0.2-1.4,0.6-1.9,1c-0.4,0.4-0.9,1-1.4,1.8C335.6,188.7,335.3,189.7,335,190.9z M326,212.5c-0.3-1.5-0.6-3.3-0.7-5.2
		c-0.2-2-0.3-4.3-0.3-7.1c0-2.8,0.2-5.4,0.5-7.9c0.4-2.5,0.8-4.6,1.4-6.3c0.6-1.7,1.3-3.2,2.3-4.5c1-1.2,1.9-2.2,2.9-2.9
		c1-0.7,2.3-1.2,3.7-1.6c2.3-0.7,4.7-1,7.2-1c2.6,0,4.4,0,5.6,0.1c1.2,0.1,2.4,0.3,3.7,0.6c1.3,0.3,2.4,0.7,3.4,1.2
		c0.9,0.5,1.9,1.2,2.8,2c1,0.8,1.8,1.8,2.4,3.1c0.6,1.2,1.2,2.6,1.7,4.3c1,3.2,1.5,7,1.5,11.3c0,4.3-0.2,7.7-0.5,10
		c-0.3,2.3-0.7,4.3-1.3,6c-0.5,1.7-1.3,3.1-2.2,4.3c-0.9,1.2-1.8,2.1-2.8,2.9c-1,0.7-2.2,1.2-3.6,1.6c-3.3,1-7.6,1.3-12.9,0.9
		c-2.7-0.1-4.7-0.5-6-1c-1.2-0.5-2.3-1.1-3.2-1.6c-0.9-0.6-1.6-1.3-2.3-2.2c-0.6-0.9-1.2-1.9-1.8-3.1
		C326.9,215.4,326.4,214,326,212.5z"/>
	<polygon class="st3" points="370.2,224.3 370.2,176.4 379.1,176.4 379.1,196.4 383,196.4 395.3,176.4 406.1,176.4 391.3,200.4 
		406.1,224.3 395.3,224.3 383,204.6 379.1,204.6 379.1,224.3 	"/>
</g>
<g>
	<path d="M144.8,324.7h-22.2l-6.8-16.4h-37l-6.2,16.4H50.9L84.2,242h23.9L144.8,324.7z M96.5,261.8l-12.1,32.1h25.5L96.5,261.8z"/>
	<path d="M225.5,242h17.9v82.7h-20.6v-51.7l-22.3,26h-3.2l-22.3-26v51.7h-20.6V242h17.9l26.6,30.7L225.5,242z"/>
	<path d="M295.7,242c30.2,0,45.7,18.8,45.7,41.5c0,23.8-15,41.2-48,41.2h-34.2V242H295.7z M279.8,309.6h13.5
		c20.7,0,26.9-14.1,26.9-26.2c0-14.2-7.6-26.2-27.2-26.2h-13.2L279.8,309.6L279.8,309.6z"/>
	<polygon points="382.4,261.6 356.4,235.6 451.1,235.6 451.1,330.3 425.1,304.3 425.1,261.6 	"/>
	<polygon points="382.4,266.9 355.6,293.6 355.6,331.1 393.1,331.1 419.8,304.3 382.4,304.3 	"/>
</g>
</svg>
